<svg xmlns="http://www.w3.org/2000/svg" width="95" height="95" viewBox="0 0 95 95">
  <g id="_1" data-name="1" transform="translate(-142 -7006)">
    <circle id="Ellipse_14" data-name="Ellipse 14" cx="47.5" cy="47.5" r="47.5" transform="translate(142 7006)" fill="#4384f1"/>
    <path id="creative-process" d="M25.05,11.006A14.411,14.411,0,0,0,10.656,25.4c0,5.246,2.161,7.663,4.448,10.222.355.4.722.808,1.085,1.233a7.554,7.554,0,0,1,1.881,5.1v2.426a6.159,6.159,0,0,0,.045.728c0,.006,0,.011,0,.017a6.046,6.046,0,0,0,5.991,5.295h1.883a6.047,6.047,0,0,0,5.992-5.3s0-.008,0-.012a5.974,5.974,0,0,0,.046-.729V41.955a7.554,7.554,0,0,1,1.878-5.1c.362-.424.729-.833,1.084-1.231,2.29-2.559,4.453-4.976,4.453-10.225A14.41,14.41,0,0,0,25.05,11.006Zm5.418,30.949v2.3H19.635v-2.3c0-.252-.011-.5-.027-.746H30.495C30.477,41.453,30.468,41.7,30.468,41.954Zm-4.475,6.9H24.11a4.483,4.483,0,0,1-4.238-3.041h10.36A4.483,4.483,0,0,1,25.993,48.856Zm7.835-14.273c-.361.4-.734.82-1.107,1.258a9.111,9.111,0,0,0-1.985,3.8H19.366a9.113,9.113,0,0,0-1.986-3.8c-.375-.439-.747-.857-1.109-1.261-2.262-2.53-4.05-4.53-4.05-9.179a12.831,12.831,0,1,1,25.662,0c0,4.651-1.79,6.65-4.055,9.182ZM24.268,6.757V1.2a.782.782,0,1,1,1.563,0V6.758a.782.782,0,1,1-1.563,0Zm13.454,6.029a.782.782,0,0,1,0-1.105l3.929-3.926A.782.782,0,0,1,42.757,8.86l-3.929,3.926a.782.782,0,0,1-1.105,0ZM50.09,25.46a.781.781,0,0,1-.782.782H43.755a.782.782,0,0,1,0-1.563h5.553A.782.782,0,0,1,50.09,25.46Zm-7.333,16.6a.782.782,0,0,1-1.105,1.105l-3.929-3.929a.782.782,0,1,1,1.105-1.105ZM16.948,26.176a.781.781,0,0,1-.782-.782,8.879,8.879,0,0,1,6.509-8.563l-.54-.38a.782.782,0,0,1,.9-1.279l2.1,1.475a.782.782,0,0,1,.19,1.09l-1.475,2.1a.782.782,0,0,1-1.278-.9l.39-.555a7.316,7.316,0,0,0-5.226,7.015.784.784,0,0,1-.783.783Zm12.83,5.844a.782.782,0,0,1-.286,1.068,8.888,8.888,0,0,1-10.509-1.2l0,.45a.782.782,0,0,1-.782.773h-.01a.782.782,0,0,1-.773-.791l.03-2.565a.782.782,0,0,1,.791-.772l2.562.03a.782.782,0,0,1-.009,1.564h-.01l-.912-.011a7.324,7.324,0,0,0,8.842,1.17.78.78,0,0,1,1.068.285Zm5.141-3.4-2.3,1.142a.782.782,0,0,1-1.049-.351l-1.142-2.3a.782.782,0,0,1,1.4-.7l.338.68a7.328,7.328,0,0,0-3.462-8.047A.782.782,0,1,1,29.49,17.7a8.9,8.9,0,0,1,4.2,9.79l.536-.267a.782.782,0,0,1,.7,1.4ZM7.345,8.86A.782.782,0,0,1,8.45,7.755l3.926,3.926a.782.782,0,0,1-1.105,1.105ZM7.13,25.46a.781.781,0,0,1-.782.782H.792a.782.782,0,1,1,0-1.563H6.347A.782.782,0,0,1,7.13,25.46Zm5.247,12.673a.781.781,0,0,1,0,1.105L8.45,43.167a.782.782,0,0,1-1.105-1.105l3.926-3.929A.782.782,0,0,1,12.377,38.132Z" transform="translate(163.99 7028.58)" fill="#fff"/>
  </g>
</svg>
