<svg xmlns="http://www.w3.org/2000/svg" xmlns:xlink="http://www.w3.org/1999/xlink" width="95" height="95" viewBox="0 0 95 95">
  <defs>
    <clipPath id="clip-path">
      <path id="path2521" d="M0-682.665H50v50H0Z" transform="translate(0 682.665)" fill="#fff"/>
    </clipPath>
  </defs>
  <g id="_2" data-name="2" transform="translate(-586 -7006)">
    <circle id="Ellipse_15" data-name="Ellipse 15" cx="47.5" cy="47.5" r="47.5" transform="translate(586 7006)" fill="#e94236"/>
    <g id="g2511" transform="translate(609 7711.665)">
      <g id="g2513" transform="translate(18.681 -642.042)">
        <path id="path2515" d="M2.04-8.535H-9.268A.732.732,0,0,1-10-9.268.732.732,0,0,1-9.268-10H2.04a.732.732,0,0,1,.732.732A.732.732,0,0,1,2.04-8.535Z" transform="translate(10 10)" fill="#fff"/>
      </g>
      <g id="g2517" transform="translate(0 -682.665)">
        <g id="g2519" clip-path="url(#clip-path)">
          <g id="g2525" transform="translate(3.015 10.53)">
            <path id="path2527" d="M-108.765,9.144a.732.732,0,0,1-.732-.732V-7.557A2.446,2.446,0,0,1-107.054-10h5.577a.732.732,0,0,1,.732.732.732.732,0,0,1-.732.732h-5.577a.979.979,0,0,0-.978.978V8.412A.732.732,0,0,1-108.765,9.144Z" transform="translate(109.497 10)" fill="#fff"/>
          </g>
          <g id="g2529" transform="translate(38.147 10.53)">
            <path id="path2531" d="M-102.563-231.347a.732.732,0,0,1-.732-.732v-15.9a.979.979,0,0,0-.978-.978h-5.663a.732.732,0,0,1-.732-.732.732.732,0,0,1,.732-.732h5.663a2.446,2.446,0,0,1,2.443,2.443v15.9A.732.732,0,0,1-102.563-231.347Z" transform="translate(110.669 250.421)" fill="#fff"/>
          </g>
          <g id="g2533" transform="translate(9.409 22.285)">
            <path id="path2535" d="M-197.274-115.577a.73.73,0,0,1-.535-.232l-7.4-7.917a.968.968,0,0,0-.715-.31.968.968,0,0,0-.715.31l-4.962,5.311a.732.732,0,0,1-1.035.035.732.732,0,0,1-.035-1.035l4.962-5.311a2.451,2.451,0,0,1,1.785-.775,2.451,2.451,0,0,1,1.785.775l7.4,7.917a.732.732,0,0,1-.035,1.035A.73.73,0,0,1-197.274-115.577Z" transform="translate(212.865 125.502)" fill="#fff"/>
          </g>
          <g id="g2537" transform="translate(18.547 22.285)">
            <path id="path2539" d="M-332.535-119.142a.73.73,0,0,1-.5-.2.732.732,0,0,1-.035-1.035l13.118-14.04a2.451,2.451,0,0,1,1.785-.775,2.451,2.451,0,0,1,1.785.775l8.06,8.626a.732.732,0,0,1-.035,1.035.732.732,0,0,1-1.035-.035l-8.06-8.626a.968.968,0,0,0-.715-.31.968.968,0,0,0-.714.31L-332-119.374A.73.73,0,0,1-332.535-119.142Z" transform="translate(333.267 135.189)" fill="#fff"/>
          </g>
          <g id="g2541" transform="translate(20.013 6.275)">
            <path id="path2543" d="M-121.189-68.088A4.993,4.993,0,0,1-116.2-63.1a4.993,4.993,0,0,1-4.987,4.987,4.993,4.993,0,0,1-4.987-4.987A4.993,4.993,0,0,1-121.189-68.088Zm0,8.509a3.526,3.526,0,0,0,3.522-3.522,3.526,3.526,0,0,0-3.522-3.522,3.526,3.526,0,0,0-3.522,3.522A3.526,3.526,0,0,0-121.189-59.579Z" transform="translate(126.176 68.088)" fill="#fff"/>
          </g>
          <g id="g2545" transform="translate(13.738 0)">
            <path id="path2547" d="M-285.6-140.427h-1.346a1.15,1.15,0,0,1-1.071-.74l-.865-2.29a8.607,8.607,0,0,1-1.368-.567l-2.231,1.008a1.137,1.137,0,0,1-.471.1,1.137,1.137,0,0,1-.809-.335l-.952-.952a1.15,1.15,0,0,1-.234-1.28l1.008-2.231a8.608,8.608,0,0,1-.567-1.368l-2.29-.865a1.15,1.15,0,0,1-.74-1.071v-1.346a1.15,1.15,0,0,1,.74-1.071l2.29-.865a8.609,8.609,0,0,1,.567-1.368l-1.008-2.231a1.15,1.15,0,0,1,.234-1.28l.951-.951a1.137,1.137,0,0,1,.809-.335,1.137,1.137,0,0,1,.471.1l2.231,1.008a8.6,8.6,0,0,1,1.368-.567l.865-2.29a1.15,1.15,0,0,1,1.071-.74h1.346a1.15,1.15,0,0,1,1.071.74l.865,2.29a8.6,8.6,0,0,1,1.368.567l2.231-1.008a1.136,1.136,0,0,1,.471-.1,1.137,1.137,0,0,1,.81.336l.951.951a1.15,1.15,0,0,1,.234,1.281l-1.008,2.231a8.611,8.611,0,0,1,.567,1.368l2.29.865a1.151,1.151,0,0,1,.74,1.071v1.346a1.15,1.15,0,0,1-.74,1.071l-2.29.865a8.613,8.613,0,0,1-.567,1.368l1.008,2.231a1.15,1.15,0,0,1-.234,1.281l-.952.952a1.137,1.137,0,0,1-.809.335,1.137,1.137,0,0,1-.471-.1l-2.231-1.008a8.6,8.6,0,0,1-1.368.567l-.865,2.29A1.15,1.15,0,0,1-285.6-140.427Zm-1.124-1.465h.9l.842-2.23a1.156,1.156,0,0,1,.75-.694,7.133,7.133,0,0,0,1.374-.57,1.153,1.153,0,0,1,.549-.14,1.124,1.124,0,0,1,.466.1l2.176.983.638-.638-.983-2.176a1.147,1.147,0,0,1,.04-1.015,7.139,7.139,0,0,0,.57-1.374,1.156,1.156,0,0,1,.694-.75l2.23-.842v-.9l-2.23-.842a1.156,1.156,0,0,1-.695-.751,7.138,7.138,0,0,0-.57-1.374,1.148,1.148,0,0,1-.04-1.015l.983-2.176-.638-.638-2.176.983a1.124,1.124,0,0,1-.466.1,1.153,1.153,0,0,1-.548-.14,7.128,7.128,0,0,0-1.374-.57,1.156,1.156,0,0,1-.75-.694l-.842-2.23h-.9l-.842,2.23a1.157,1.157,0,0,1-.75.694,7.132,7.132,0,0,0-1.374.57,1.152,1.152,0,0,1-.548.14,1.124,1.124,0,0,1-.466-.1l-2.176-.983-.638.638.983,2.176a1.147,1.147,0,0,1-.039,1.014,7.131,7.131,0,0,0-.57,1.374,1.156,1.156,0,0,1-.695.75l-2.23.842v.9l2.23.842a1.156,1.156,0,0,1,.694.75,7.131,7.131,0,0,0,.57,1.374,1.147,1.147,0,0,1,.04,1.015l-.983,2.176.638.638,2.176-.983a1.124,1.124,0,0,1,.466-.1,1.152,1.152,0,0,1,.549.14,7.138,7.138,0,0,0,1.374.57,1.157,1.157,0,0,1,.75.695Z" transform="translate(297.53 162.952)" fill="#fff"/>
          </g>
          <g id="g2549" transform="translate(29.988 31.454)">
            <path id="path2551" d="M-245.9-46.025H-260.54a2.689,2.689,0,0,1-2.686-2.686V-61.885a2.689,2.689,0,0,1,2.686-2.686H-245.9a2.689,2.689,0,0,1,2.686,2.686v2.044a.732.732,0,0,1-.732.732.732.732,0,0,1-.732-.732v-2.044a1.222,1.222,0,0,0-1.221-1.221H-260.54a1.222,1.222,0,0,0-1.221,1.221V-48.71a1.222,1.222,0,0,0,1.221,1.221H-245.9a1.222,1.222,0,0,0,1.221-1.221v-7.252a.732.732,0,0,1,.732-.732.732.732,0,0,1,.732.732v7.252A2.689,2.689,0,0,1-245.9-46.025Z" transform="translate(263.226 64.571)" fill="#fff"/>
          </g>
          <g id="g2553" transform="translate(0 31.454)">
            <path id="path2555" d="M-19.34-224.664H-33.981a2.689,2.689,0,0,1-2.686-2.686v-13.175a2.689,2.689,0,0,1,2.686-2.686H-19.34a2.689,2.689,0,0,1,2.686,2.686v13.175A2.689,2.689,0,0,1-19.34-224.664Zm-14.641-17.081a1.222,1.222,0,0,0-1.221,1.221v13.175a1.222,1.222,0,0,0,1.221,1.221H-19.34a1.222,1.222,0,0,0,1.221-1.221v-13.175a1.222,1.222,0,0,0-1.221-1.221Z" transform="translate(36.667 243.21)" fill="#fff"/>
          </g>
          <g id="g2557" transform="translate(35.775 36.005)">
            <path id="path2559" d="M-18.7-108.638a1.223,1.223,0,0,1-1.221-1.221v-7a1.223,1.223,0,0,1,1.221-1.221,1.223,1.223,0,0,1,.595.156l6.265,3.5a1.222,1.222,0,0,1,.625,1.066,1.222,1.222,0,0,1-.625,1.066l-6.265,3.5A1.223,1.223,0,0,1-18.7-108.638Zm.243-7.806v6.169l5.52-3.084Z" transform="translate(19.919 118.082)" fill="#fff"/>
          </g>
          <g id="g2561" transform="translate(4.173 36.471)">
            <path id="path2563" d="M.934-8.535h-10.2A.732.732,0,0,1-10-9.268.732.732,0,0,1-9.268-10H.934a.732.732,0,0,1,.732.732A.732.732,0,0,1,.934-8.535Z" transform="translate(10 10)" fill="#fff"/>
          </g>
          <g id="g2565" transform="translate(4.173 39.995)">
            <path id="path2567" d="M.934-8.535h-10.2A.732.732,0,0,1-10-9.268.732.732,0,0,1-9.268-10H.934a.732.732,0,0,1,.732.732A.732.732,0,0,1,.934-8.535Z" transform="translate(10 10)" fill="#fff"/>
          </g>
          <g id="g2569" transform="translate(4.173 43.519)">
            <path id="path2571" d="M.934-8.535h-10.2A.732.732,0,0,1-10-9.268.732.732,0,0,1-9.268-10H.934a.732.732,0,0,1,.732.732A.732.732,0,0,1,.934-8.535Z" transform="translate(10 10)" fill="#fff"/>
          </g>
        </g>
      </g>
    </g>
  </g>
</svg>
