<svg xmlns="http://www.w3.org/2000/svg" width="95" height="95" viewBox="0 0 95 95">
  <g id="_3" data-name="3" transform="translate(-1030 -7006)">
    <circle id="Ellipse_16" data-name="Ellipse 16" cx="47.5" cy="47.5" r="47.5" transform="translate(1030 7006)" fill="#33a952"/>
    <g id="atom" transform="translate(1012.002 7005.497)">
      <path id="Path_687" data-name="Path 687" d="M208.412,203.667a3.534,3.534,0,1,0-5.142,0,4.93,4.93,0,0,0-2.765,4.424.806.806,0,0,0,1.613,0,3.315,3.315,0,0,1,3.311-3.311h.824a3.315,3.315,0,0,1,3.311,3.311.806.806,0,0,0,1.613,0A4.929,4.929,0,0,0,208.412,203.667Zm-2.571-4.343a1.922,1.922,0,1,1-1.922,1.922A1.924,1.924,0,0,1,205.841,199.324Z" transform="translate(-140.571 -155.476)" fill="#fff"/>
      <path id="Path_688" data-name="Path 688" d="M88.805,55.028a3.218,3.218,0,0,0-4.13-3.087A26.794,26.794,0,0,0,81.406,48.5a25.666,25.666,0,0,0,3.8-4.145C87.543,41.1,88.152,38.134,86.921,36s-4.1-3.088-8.093-2.693a25.668,25.668,0,0,0-5.492,1.219,27.267,27.267,0,0,0-1.21-4.218,3.217,3.217,0,0,0-3.413-5.387A5.257,5.257,0,0,0,65.271,23.5c-2.461,0-4.727,2.011-6.379,5.662A25.664,25.664,0,0,0,57.2,34.528a25.664,25.664,0,0,0-5.489-1.218c-3.988-.395-6.862.562-8.093,2.693-1.044,1.809-.752,4.266.815,6.97a3.217,3.217,0,0,0,4.025,4.909q.331.312.676.62a25.67,25.67,0,0,0-3.8,4.146C43,55.9,42.389,58.871,43.62,61c.986,1.709,3,2.659,5.843,2.769a3.219,3.219,0,0,0,6.269-.849q.729-.2,1.47-.447a25.671,25.671,0,0,0,1.69,5.366c1.652,3.651,3.917,5.662,6.379,5.662S70,71.492,71.649,67.841a25.67,25.67,0,0,0,1.689-5.363A25.664,25.664,0,0,0,78.828,63.7q.883.087,1.691.087c3.109,0,5.353-.963,6.4-2.78a5.06,5.06,0,0,0,.547-3.365,3.218,3.218,0,0,0,1.337-2.61Zm-1.613,0a1.606,1.606,0,1,1-1.606-1.606A1.608,1.608,0,0,1,87.192,55.028ZM78.987,34.915c3.273-.324,5.655.367,6.537,1.894s.289,3.937-1.628,6.609a24.274,24.274,0,0,1-3.733,4.034,38.12,38.12,0,0,0-4.837-3.3l-1.257-.726V41.972a38.086,38.086,0,0,0-.443-5.84A24.28,24.28,0,0,1,78.987,34.915ZM72.084,60.3a36.8,36.8,0,0,1-4.75-2.313l-.451-.26,5.572-3.217v.52A36.785,36.785,0,0,1,72.084,60.3ZM65.27,56.8l-7.185-4.148v-8.3l7.185-4.148,7.185,4.148v8.3Zm-7.185-1.766v-.52l5.572,3.217-.451.26a36.647,36.647,0,0,1-4.751,2.31A36.787,36.787,0,0,1,58.085,55.034ZM56.472,51.72l-.451-.26a36.74,36.74,0,0,1-4.375-2.96,36.775,36.775,0,0,1,4.375-2.954l.451-.26ZM58.457,36.7a36.8,36.8,0,0,1,4.75,2.313l.451.26-5.572,3.217v-.52A36.786,36.786,0,0,1,58.457,36.7Zm14,5.27v.52l-5.572-3.217.451-.26A36.8,36.8,0,0,1,72.08,36.7a36.681,36.681,0,0,1,.375,5.269Zm1.613,3.314.451.26A36.756,36.756,0,0,1,78.9,48.5a36.789,36.789,0,0,1-4.378,2.957l-.451.26ZM71.661,27.848a1.606,1.606,0,1,1-1.606-1.606A1.608,1.608,0,0,1,71.661,27.848Zm-11.3,1.982c1.356-3,3.145-4.714,4.909-4.714a3.5,3.5,0,0,1,2.175.851,3.217,3.217,0,0,0,3.219,5.042A26.009,26.009,0,0,1,71.8,35.08a38.141,38.141,0,0,0-5.275,2.538l-1.257.726-1.257-.726a38.138,38.138,0,0,0-5.279-2.539A24.281,24.281,0,0,1,60.361,29.83ZM45.247,45.093A1.606,1.606,0,1,1,46.854,46.7,1.608,1.608,0,0,1,45.247,45.093Zm4.365,1.658a3.218,3.218,0,0,0-3.841-4.689c-1.216-2.136-1.487-3.984-.755-5.252.882-1.528,3.265-2.219,6.537-1.894a24.272,24.272,0,0,1,5.359,1.216,38.147,38.147,0,0,0-.441,5.841v1.452l-1.257.726a38.142,38.142,0,0,0-4.834,3.3Q49.986,47.1,49.612,46.751Zm2.9,17.611a1.606,1.606,0,1,1,1.606-1.606A1.608,1.608,0,0,1,52.517,64.361Zm2.889-3.024a3.218,3.218,0,0,0-6.051.814c-2.144-.116-3.671-.8-4.339-1.955-.882-1.528-.289-3.937,1.628-6.609a24.284,24.284,0,0,1,3.735-4.035,38.192,38.192,0,0,0,4.836,3.3l1.257.726v1.452a38.147,38.147,0,0,0,.44,5.837Q56.154,61.128,55.406,61.338ZM70.18,67.175c-1.356,3-3.145,4.714-4.909,4.714s-3.554-1.718-4.909-4.714a24.28,24.28,0,0,1-1.627-5.252,38.126,38.126,0,0,0,5.279-2.536l1.257-.726,1.257.726a38.144,38.144,0,0,0,5.279,2.539A24.281,24.281,0,0,1,70.18,67.175ZM85.524,60.2c-.882,1.528-3.265,2.218-6.537,1.894a24.273,24.273,0,0,1-5.359-1.216,38.147,38.147,0,0,0,.441-5.841V53.582l1.257-.726a38.159,38.159,0,0,0,4.837-3.3,25.624,25.624,0,0,1,3.121,3.226,3.219,3.219,0,0,0,2.63,5.449,3.333,3.333,0,0,1-.389,1.966Z" transform="translate(0)" fill="#fff"/>
    </g>
  </g>
</svg>
