<svg xmlns="http://www.w3.org/2000/svg" xmlns:xlink="http://www.w3.org/1999/xlink" width="265.056" height="57.254" viewBox="0 0 265.056 57.254">
  <defs>
    <linearGradient id="linear-gradient" y1="0.5" x2="1" y2="0.5" gradientUnits="objectBoundingBox">
      <stop offset="0" stop-color="#e94236"/>
      <stop offset="1" stop-color="#75211b"/>
    </linearGradient>
  </defs>
  <g id="lightLogo" transform="translate(-179.379 -483.353)">
    <g id="Group_7109" data-name="Group 7109" transform="translate(238.021 485.748)">
      <g id="Group_7107" data-name="Group 7107" transform="translate(4.112)">
        <path id="Path_1966" data-name="Path 1966" d="M312.019,514.23H299.844l-2.243,6.208h-3.845l10.093-27.756h4.206l10.053,27.756h-3.845Zm-6.088-17.062-5.047,14.1h10.093Z" transform="translate(-293.756 -489.958)" fill="#fff"/>
        <path id="Path_1967" data-name="Path 1967" d="M362.23,512.469c0-4.486-2.443-6.768-6.127-6.768-3.725,0-6.288,2.323-6.288,7.049v12.135H346.17V502.938h3.645v3.124a8.108,8.108,0,0,1,7.049-3.525c5.087,0,8.972,3.124,8.972,9.412v12.936h-3.6Z" transform="translate(-317.412 -494.406)" fill="#fff"/>
        <path id="Path_1968" data-name="Path 1968" d="M391.794,490.2a2.444,2.444,0,1,1,2.483,2.483A2.446,2.446,0,0,1,391.794,490.2Zm.6,6.047h3.644v43.7H392.4Z" transform="translate(-338.004 -487.718)" fill="#fff"/>
        <path id="Path_1969" data-name="Path 1969" d="M442.527,512.469c0-4.486-2.4-6.768-6.008-6.768-3.684,0-6.208,2.363-6.208,7.089v12.1h-3.6V512.469c0-4.486-2.4-6.768-6.008-6.768-3.685,0-6.208,2.363-6.208,7.089v12.1h-3.644V502.938h3.644V506.1a7.935,7.935,0,0,1,6.929-3.565c3.6,0,6.609,1.6,8.05,4.886a8.125,8.125,0,0,1,7.77-4.886c5.007,0,8.891,3.124,8.891,9.412v12.936h-3.6Z" transform="translate(-346.604 -494.406)" fill="#fff"/>
        <path id="Path_1970" data-name="Path 1970" d="M493.967,502.61a9.108,9.108,0,0,1,8.171,4.366V502.97h3.685v21.948h-3.685v-4.085a9.166,9.166,0,0,1-8.211,4.446c-5.847,0-10.373-4.605-10.373-11.414C483.554,507.016,488.08,502.61,493.967,502.61Zm.721,3.164c-4.005,0-7.41,2.924-7.41,8.091s3.4,8.211,7.41,8.211,7.449-3,7.449-8.171C502.138,508.818,498.694,505.774,494.689,505.774Z" transform="translate(-379.419 -494.439)" fill="#fff"/>
        <path id="Path_1971" data-name="Path 1971" d="M534.5,501.724h-2.844v-3H534.5v-5.527h3.644v5.527h5.727v3h-5.727v12.936c0,2.163.8,2.924,3.044,2.924h2.683v3.084h-3.284c-3.886,0-6.088-1.6-6.088-6.008Z" transform="translate(-401.132 -490.189)" fill="#fff"/>
        <path id="Path_1972" data-name="Path 1972" d="M560.86,490.2a2.444,2.444,0,1,1,2.484,2.483A2.446,2.446,0,0,1,560.86,490.2Zm.6,6.047h3.645V518.2h-3.645Z" transform="translate(-414.31 -487.718)" fill="#fff"/>
        <path id="Path_1973" data-name="Path 1973" d="M588.365,525.279c-6.208,0-10.934-4.406-10.934-11.374,0-6.929,4.886-11.295,11.094-11.295,6.248,0,11.095,4.366,11.095,11.295C599.62,520.873,594.613,525.279,588.365,525.279Zm0-3.2c3.8,0,7.53-2.6,7.53-8.171,0-5.527-3.644-8.131-7.41-8.131-3.845,0-7.329,2.6-7.329,8.131C581.156,519.471,584.56,522.075,588.365,522.075Z" transform="translate(-421.789 -494.439)" fill="#fff"/>
        <path id="Path_1974" data-name="Path 1974" d="M642.693,512.469c0-4.486-2.443-6.768-6.128-6.768-3.725,0-6.288,2.323-6.288,7.049v12.135h-3.644V502.938h3.644v3.124a8.109,8.109,0,0,1,7.049-3.525c5.087,0,8.972,3.124,8.972,9.412v12.936h-3.6Z" transform="translate(-443.996 -494.406)" fill="#fff"/>
      </g>
      <g id="Group_7108" data-name="Group 7108" transform="translate(0 33.151)">
        <path id="Path_1975" data-name="Path 1975" d="M292.475,568.123c-3.61,0-6.163-2.011-6.214-4.977h2.5c.155,1.5,1.212,2.991,3.713,2.991,2.269,0,3.61-1.289,3.61-2.991,0-4.848-9.721-1.754-9.721-8.432,0-2.965,2.4-4.976,5.956-4.976,3.43,0,5.673,1.883,5.956,4.615H295.7a3.255,3.255,0,0,0-3.481-2.6c-1.934-.052-3.456.954-3.456,2.888,0,4.641,9.7,1.753,9.7,8.405C298.457,565.6,296.369,568.123,292.475,568.123Z" transform="translate(-286.261 -548.86)" fill="#fff"/>
        <path id="Path_1976" data-name="Path 1976" d="M314.224,556.169h-1.831v-1.934h1.831v-3.559h2.346v3.559h3.688v1.934H316.57V564.5c0,1.392.516,1.881,1.96,1.881h1.728v1.986h-2.115c-2.5,0-3.919-1.031-3.919-3.867Z" transform="translate(-298.055 -549.284)" fill="#fff"/>
        <path id="Path_1977" data-name="Path 1977" d="M344.322,571.293h-2.346V569.2a5.194,5.194,0,0,1-4.513,2.3c-3.249,0-5.8-2.011-5.8-6.06v-8.277h2.321v7.967c0,2.862,1.573,4.333,3.945,4.333,2.424,0,4.049-1.5,4.049-4.539v-7.761h2.346Z" transform="translate(-306.752 -552.212)" fill="#fff"/>
        <path id="Path_1978" data-name="Path 1978" d="M367.109,552.857a6.162,6.162,0,0,1,5.234,2.759v-7.478h2.372V567.22h-2.372v-2.656a5.8,5.8,0,0,1-5.26,2.888c-3.791,0-6.7-2.965-6.7-7.349C360.379,555.694,363.293,552.857,367.109,552.857Zm.438,2.037c-2.578,0-4.77,1.882-4.77,5.209s2.192,5.286,4.77,5.286,4.8-1.935,4.8-5.261C372.344,556.854,370.127,554.895,367.547,554.895Z" transform="translate(-319.713 -548.139)" fill="#fff"/>
        <path id="Path_1979" data-name="Path 1979" d="M393.749,557.163H396.1v14.13h-2.346Z" transform="translate(-334.774 -552.212)" fill="#fff"/>
        <path id="Path_1980" data-name="Path 1980" d="M410.752,571.334c-4,0-7.04-2.836-7.04-7.323a7.144,7.144,0,1,1,14.286,0A7.006,7.006,0,0,1,410.752,571.334Zm0-2.062c2.449,0,4.847-1.676,4.847-5.261,0-3.559-2.346-5.235-4.77-5.235-2.476,0-4.719,1.676-4.719,5.235C406.11,567.6,408.3,569.272,410.752,569.272Z" transform="translate(-339.271 -552.021)" fill="#fff"/>
        <path id="Path_1981" data-name="Path 1981" d="M439.757,571.334c-3.3,0-5.621-1.806-5.776-4.384H436.4c.128,1.367,1.34,2.4,3.326,2.4,1.857,0,2.888-.928,2.888-2.088,0-3.147-8.355-1.315-8.355-6.576,0-2.166,2.037-3.945,5.183-3.945,3.121,0,5.184,1.677,5.338,4.435h-2.346c-.1-1.418-1.187-2.45-3.069-2.45-1.728,0-2.759.825-2.759,1.96,0,3.352,8.2,1.522,8.3,6.576C444.914,569.581,442.876,571.334,439.757,571.334Z" transform="translate(-352.933 -552.021)" fill="#fff"/>
      </g>
    </g>
    <g id="Group_7111" data-name="Group 7111" transform="translate(179.379 483.353)">
      <g id="favicon">
        <path id="Path_1982" data-name="Path 1982" d="M195.993,562.847a9.749,9.749,0,0,1-16.614,5.619l.19-13.895a9.753,9.753,0,0,1,16.424,8.275Z" transform="translate(-179.379 -514.272)" fill="url(#linear-gradient)"/>
        <path id="Path_1983" data-name="Path 1983" d="M222.11,577.751l-.026.015-7.372,4.3a15.843,15.843,0,0,0,3.175-6.853A10.2,10.2,0,0,0,222,577.7,1.135,1.135,0,0,0,222.11,577.751Z" transform="translate(-195.326 -524.814)" fill="url(#linear-gradient)"/>
        <path id="Path_1984" data-name="Path 1984" d="M231.393,521.69l-14.215,8.3c-1.751-4.156-9.17-2.93-9.17-6.219,0-1.517,1.091-2.239,2.556-2.182a2.663,2.663,0,0,1,2.36,1.2,1.906,1.906,0,0,0,1.616,1.009h.341a1.805,1.805,0,0,0,1.492-2.826c-1.122-1.6-3.14-2.474-5.7-2.474-3.84,0-6.557,2.021-6.557,5.377-.026,6.64,9.269,4.39,9.56,8.162l-3.907,2.281a5.011,5.011,0,0,1-.978-.5,14.044,14.044,0,0,1-3.978-3.825,65.479,65.479,0,0,1-3.954-6.328.1.1,0,0,1,0,.026,15.921,15.921,0,0,0-20.933-7.461l.348-25.511a7.455,7.455,0,0,1,11.69-6.032l39.606,24.622A7.452,7.452,0,0,1,231.393,521.69Z" transform="translate(-179.623 -483.353)" fill="#e94236"/>
      </g>
    </g>
  </g>
</svg>
