<svg xmlns="http://www.w3.org/2000/svg" width="224" height="50" viewBox="0 0 224 50">
  <g id="digitalOcean" transform="translate(2403 -9612)">
    <rect id="Rectangle_413" data-name="Rectangle 413" width="224" height="50" rx="10" transform="translate(-2403 9612)" fill="#33a952"/>
    <g id="Group-103" transform="translate(-2379.679 9622)">
      <path id="Path_1940" data-name="Path 1940" d="M15.428,30V24.163a9.183,9.183,0,0,0,8.466-12.557,8.714,8.714,0,0,0-2-3.188,8.574,8.574,0,0,0-3.147-2.028,9,9,0,0,0-8.363,1.034A9.182,9.182,0,0,0,7.5,10.706a9.315,9.315,0,0,0-1.058,4.261H.679A14.933,14.933,0,0,1,20.228.73,14.238,14.238,0,0,1,26.043,4.3a14.49,14.49,0,0,1,3.524,5.891A15.078,15.078,0,0,1,15.428,30Z" transform="translate(0 0)" fill="#fff"/>
      <path id="Path_1941" data-name="Path 1941" d="M15.274,22.637H9.514V16.889h5.76Zm-5.76,4.511H5.15V22.637H9.514ZM5.15,22.637H1.49V18.924H5.15ZM53.064,7.161A10.983,10.983,0,0,0,46.78,5.386H41.458V22.63h5.324a10.58,10.58,0,0,0,6.284-1.857,6.749,6.749,0,0,0,2.182-2.741,9.9,9.9,0,0,0,.785-4.069,9.227,9.227,0,0,0-.785-3.98,5.626,5.626,0,0,0-2.184-2.822ZM44.6,8.312h1.658a8.375,8.375,0,0,1,4.625,1.15c1.309.8,1.928,2.308,1.928,4.511s-.7,3.8-1.928,4.686a8.385,8.385,0,0,1-4.539,1.15H44.6ZM59.785,5.129a1.755,1.755,0,0,0-.709.129,1.775,1.775,0,0,0-.6.4,1.6,1.6,0,0,0-.464.588,1.615,1.615,0,0,0-.147.738A1.869,1.869,0,0,0,58.4,8.3a1.816,1.816,0,0,0,2.592,0,1.869,1.869,0,0,0,.537-1.313,1.82,1.82,0,0,0-.127-.718,1.8,1.8,0,0,0-.4-.608,1.46,1.46,0,0,0-1.227-.533ZM58.2,10.435h3.055V22.55H58.213V10.435ZM72.177,11.5a4.611,4.611,0,0,0-3.054-1.326,5.341,5.341,0,0,0-2.241.438,5.4,5.4,0,0,0-1.862,1.337,6.2,6.2,0,0,0-1.658,4.333,6.277,6.277,0,0,0,1.577,4.333,5.3,5.3,0,0,0,4.1,1.681,4.789,4.789,0,0,0,2.967-.973v.264a3.208,3.208,0,0,1-.785,2.308,2.882,2.882,0,0,1-2.182.8c-1.4,0-2.269-.533-3.316-2.034l-2.1,2.034.088.089a8.3,8.3,0,0,0,2.007,1.857,5.677,5.677,0,0,0,3.316.888,5.428,5.428,0,0,0,4.276-1.681,6.27,6.27,0,0,0,1.658-4.422V10.435H72V11.5h.174Zm-.783,7.163a2.935,2.935,0,0,1-4.206,0,3.575,3.575,0,0,1-.785-2.388,3.593,3.593,0,0,1,.8-2.393,2.935,2.935,0,0,1,4.206,0A3.575,3.575,0,0,1,72.2,16.27a3.565,3.565,0,0,1-.785,2.388Zm6.39-8.23h3.054V22.548H77.763V10.435Zm1.465-5.3a1.769,1.769,0,0,0-.709.129,1.787,1.787,0,0,0-.6.4,1.825,1.825,0,0,0-.523,1.327A1.869,1.869,0,0,0,77.951,8.3a1.817,1.817,0,0,0,2.592,0,1.869,1.869,0,0,0,.537-1.313,1.825,1.825,0,0,0-.524-1.327,1.777,1.777,0,0,0-1.311-.53ZM87.36,7.161H84.4v3.273H82.644v2.741H84.4v5.041a4.8,4.8,0,0,0,.96,3.36,4.567,4.567,0,0,0,3.23.973,8.367,8.367,0,0,0,1.484-.089h.175V19.719l-1.051.089c-.7,0-1.227-.089-1.4-.355a2.372,2.372,0,0,1-.35-1.6v-4.59h2.793V10.522H87.451Zm16.93-1.775h3.055V22.63h-3.051V5.4Zm33.517,12.921a10.168,10.168,0,0,1-1.484,1.42,2.982,2.982,0,0,1-1.577.442,2.945,2.945,0,0,1-1.187-.261,2.987,2.987,0,0,1-.986-.72,3.664,3.664,0,0,1-.876-2.565,3.644,3.644,0,0,1,.876-2.565,2.7,2.7,0,0,1,.978-.745,2.653,2.653,0,0,1,1.2-.227,4,4,0,0,1,2.879,1.681l2.006-1.953a6.006,6.006,0,0,0-4.975-2.476,5.777,5.777,0,0,0-4.276,1.857,6.469,6.469,0,0,0-1.753,4.511,6.288,6.288,0,0,0,1.753,4.511,5.672,5.672,0,0,0,1.941,1.393,5.614,5.614,0,0,0,2.334.464,6.016,6.016,0,0,0,5.149-2.741L137.807,18.3ZM150.114,12.2a4.6,4.6,0,0,0-1.753-1.42,5.633,5.633,0,0,0-2.53-.533,5.162,5.162,0,0,0-4.1,1.857,7.157,7.157,0,0,0-1.483,4.511,6.13,6.13,0,0,0,1.657,4.511,5.808,5.808,0,0,0,4.364,1.775,6.009,6.009,0,0,0,4.975-2.476l.087-.089-2.006-1.953a5.421,5.421,0,0,1-.7.71,2.667,2.667,0,0,1-.876.619,2.839,2.839,0,0,1-1.484.355,3.333,3.333,0,0,1-2.1-.71,2.687,2.687,0,0,1-.876-1.857h8.03v-1.15a6.668,6.668,0,0,0-.35-2.308,4.041,4.041,0,0,0-.876-1.857Zm-6.547,2.837a3.147,3.147,0,0,1,.785-1.42,2.092,2.092,0,0,1,1.578-.619,2.032,2.032,0,0,1,1.657.619,2.592,2.592,0,0,1,.612,1.42Zm18.154-3.627a5.472,5.472,0,0,0-3.751-1.15,7.553,7.553,0,0,0-2.79.621,4.7,4.7,0,0,0-2.006,1.953l1.927,1.857a3.052,3.052,0,0,1,2.879-1.775,2.415,2.415,0,0,1,1.577.533,1.585,1.585,0,0,1,.465.588,1.624,1.624,0,0,1,.148.738v.619a6.611,6.611,0,0,0-2.183-.355,6,6,0,0,0-3.666,1.065,3.567,3.567,0,0,0-1.4,3.007,3.45,3.45,0,0,0,1.133,2.741,4.1,4.1,0,0,0,2.879.973,5.279,5.279,0,0,0,3.23-1.243v.973h2.968V14.768a4.112,4.112,0,0,0-1.4-3.36ZM156.4,17.951a2.206,2.206,0,0,1,1.4-.355,7.344,7.344,0,0,1,2.27.442v1.15a3.826,3.826,0,0,1-2.619.973,1.7,1.7,0,0,1-1.226-.355,1.224,1.224,0,0,1-.436-.888,1.444,1.444,0,0,1,.205-.551,1.46,1.46,0,0,1,.406-.422Zm18.321-6.367a4.394,4.394,0,0,0-3.491-1.42,3.85,3.85,0,0,0-2.879,1.065v-.71h-2.969V22.634h3.055V15.916a3.476,3.476,0,0,1,.611-2.21,2.206,2.206,0,0,1,.786-.6,2.177,2.177,0,0,1,.967-.193,1.9,1.9,0,0,1,.872.165,1.917,1.917,0,0,1,.7.545,3.225,3.225,0,0,1,.612,1.953v7.074h3.04V15.563a6.749,6.749,0,0,0-1.309-3.98Zm-74.183-.178a5.474,5.474,0,0,0-3.752-1.15,7.556,7.556,0,0,0-2.793.62,4.71,4.71,0,0,0-2.007,1.953l1.928,1.857A3.051,3.051,0,0,1,96.8,12.909a2.415,2.415,0,0,1,1.577.533,1.594,1.594,0,0,1,.465.588,1.615,1.615,0,0,1,.147.738v.62a6.6,6.6,0,0,0-2.182-.355A6,6,0,0,0,93.138,16.1a3.567,3.567,0,0,0-1.4,3.007,3.447,3.447,0,0,0,1.134,2.741,4.1,4.1,0,0,0,2.879.973,5.283,5.283,0,0,0,3.23-1.242v.973h2.967v-7.78a4.4,4.4,0,0,0-1.4-3.36Zm-5.41,6.545a2.206,2.206,0,0,1,1.4-.355,7.343,7.343,0,0,1,2.269.442v1.15a3.826,3.826,0,0,1-2.618.973,1.7,1.7,0,0,1-1.227-.355,1.223,1.223,0,0,1-.436-.888,2.64,2.64,0,0,1,.612-.973ZM118.266,22.9a8.651,8.651,0,0,1-4.851-1.489,8.82,8.82,0,0,1-3.217-3.968,8.927,8.927,0,0,1,1.89-9.639,8.67,8.67,0,0,1,13.434,1.339A8.9,8.9,0,0,1,124.428,20.3a8.707,8.707,0,0,1-6.162,2.6Zm0-14.679a5.622,5.622,0,0,0-3.155.964,5.732,5.732,0,0,0-2.094,2.577,5.8,5.8,0,0,0,1.223,6.267,5.634,5.634,0,0,0,8.733-.863,5.8,5.8,0,0,0-.7-7.261,5.656,5.656,0,0,0-1.842-1.246,5.6,5.6,0,0,0-2.173-.435" transform="translate(0.241 1.526)" fill="#fff"/>
    </g>
  </g>
</svg>
